<svg width="48" height="49" viewBox="0 0 48 49" fill="none" xmlns="http://www.w3.org/2000/svg">
<g id="Frame" clip-path="url(#clip0_5526_17195)">
<path id="Vector" d="M5.28757 39.0763C1.87888 34.8374 -0.120267 29.4167 0.0053438 23.5251C0.282932 10.5042 10.9986 0.0367536 24.0225 0.0488386C37.2669 0.0609235 47.9998 10.8015 47.9998 24.0488C47.9998 29.7408 46.0172 34.9689 42.7063 39.0833C42.4821 39.3616 42.1236 39.4934 41.7721 39.429C35.9303 38.3593 29.5677 37.7715 22.91 37.7715C16.8122 37.7715 10.9624 38.2648 5.53293 39.1697C5.44028 39.1851 5.34653 39.1495 5.28757 39.0763Z" fill="#39A657"/>
<path id="Vector_2" d="M22.2187 18.9314C24.2779 16.4228 24.9946 13.6938 23.7869 12.4857C22.8113 11.5105 20.8433 11.791 18.8005 13.0193C18.6427 9.42822 17.1361 6.61133 15.2996 6.61133C13.463 6.61133 11.9561 9.42822 11.7982 13.0197C9.75586 11.791 7.78747 11.5105 6.81189 12.4861C5.60412 13.6938 6.3208 16.4228 8.38 18.9314C7.73987 18.9431 7.19824 19.1328 6.81189 19.5188C5.43896 20.8917 6.55188 24.2308 9.29773 26.9767C11.317 28.996 13.6564 30.1305 15.2996 30.0444C16.9424 30.1305 19.2817 28.996 21.301 26.9767C24.0469 24.2308 25.1598 20.8917 23.7869 19.5188C23.4009 19.1324 22.8592 18.9431 22.2187 18.9314ZM15.1835 23.0146C15.2223 23.0139 15.2611 23.0135 15.2996 23.0113C15.3376 23.0132 15.3765 23.0139 15.4153 23.0146C15.3768 23.0619 15.3369 23.1088 15.2996 23.1556C15.2618 23.1088 15.2223 23.0619 15.1835 23.0146Z" fill="#00824D"/>
<path id="Vector_3" d="M36.9503 26.8845C37.3945 27.3456 37.6435 27.8627 37.6435 28.4087C37.6435 30.3503 34.4956 31.9243 30.6123 31.9243C28.4604 31.9243 26.5356 31.4405 25.2466 30.6792C24.9353 31.331 24.5618 31.8635 24.145 32.2389C23.0442 33.4613 20.588 34.3131 17.7323 34.3131C13.849 34.3131 10.701 32.7391 10.701 30.7975C10.701 30.2515 10.9497 29.7344 11.3943 29.2733C8.16431 28.9558 6.07031 27.5327 6.07031 25.8247C6.07031 24.4448 7.31799 23.2517 9.63098 22.676C7.20337 20.025 10.6545 17.7043 11.9531 16.4058C13.2517 15.1072 11.9315 15.2969 14.5825 17.7249C15.1582 15.4115 16.3513 13.8214 17.7308 13.8214C19.4392 13.8214 20.8619 16.2582 21.1798 19.4878C21.6409 19.0436 22.158 18.7946 22.704 18.7946C22.8007 18.7946 22.8959 18.8044 22.9904 18.8198C23.6349 17.3411 24.5826 16.4058 25.6406 16.4058C26.1866 16.4058 26.7037 16.6548 27.1648 17.099C27.4827 13.8694 28.9054 11.4326 30.6138 11.4326C31.9933 11.4326 33.1864 13.0227 33.7621 15.3361C36.4131 12.9081 39.4706 11.9816 40.7692 13.2805C42.0677 14.5791 41.1412 17.6362 38.7136 20.2872C41.0266 20.8629 42.6167 22.056 42.6167 23.4359C42.6167 25.1439 40.1799 26.5666 36.9503 26.8845Z" fill="#00824D"/>
<path id="Vector_4" d="M28.9453 33.7988C25.5798 33.7988 22.8516 31.0705 22.8516 27.7051V6.14258C22.8516 2.7771 25.5798 0.0488281 28.9453 0.0488281C32.3108 0.0488281 35.0391 2.7771 35.0391 6.14258V27.7051C35.0391 31.0705 32.3108 33.7988 28.9453 33.7988Z" fill="#F7C32A"/>
<path id="Vector_5" d="M35.0391 6.14258V27.7051C35.0391 31.0705 32.3108 33.7988 28.9453 33.7988C28.2554 33.7988 27.5933 33.6827 26.9747 33.4714C26.098 32.4156 25.5703 31.0596 25.5703 29.5801V23.0176C25.5703 22.2408 26.1998 21.6113 26.9766 21.6113H31.7578C32.2961 21.6113 32.7286 21.1576 32.6935 20.6116C32.6609 20.1132 32.2251 19.7363 31.7256 19.7363H26.9766C26.1998 19.7363 25.5703 19.1068 25.5703 18.3301C25.5703 17.5533 26.1998 16.9238 26.9766 16.9238H31.7578C32.2961 16.9238 32.7286 16.4701 32.6931 15.9241C32.6609 15.4257 32.2251 15.0488 31.7256 15.0488H26.9766C26.1998 15.0488 25.5703 14.4193 25.5703 13.6426C25.5703 12.8658 26.1998 12.2363 26.9766 12.2363H31.7578C32.2961 12.2363 32.7286 11.7826 32.6931 11.2366C32.6609 10.7382 32.2251 10.3613 31.7256 10.3613H26.9766C26.1998 10.3613 25.5703 9.73181 25.5703 8.95508C25.5703 8.17834 26.1998 7.54883 26.9766 7.54883H31.7578C32.2961 7.54883 32.7286 7.09509 32.6931 6.54907C32.6609 6.05066 32.2251 5.67383 31.7256 5.67383H26.9766C26.1998 5.67383 25.5703 5.04431 25.5703 4.26758C25.5703 2.78808 26.098 1.43201 26.9747 0.376221C27.5933 0.164917 28.2554 0.0488281 28.9453 0.0488281C32.3108 0.0488281 35.0391 2.7771 35.0391 6.14258Z" fill="#F7D674"/>
<path id="Vector_6" d="M26.8557 21.0913C26.425 21.3422 26.1661 21.8083 26.1661 22.3064C26.1661 22.8044 26.425 23.271 26.8557 23.5215C27.2644 23.7592 27.5391 24.2019 27.5391 24.7087V43.77C27.5391 44.5284 26.9246 45.1429 26.1661 45.1429H14.4979C13.7395 45.1429 13.125 44.5284 13.125 43.77V24.7087C13.125 24.2019 13.3997 23.7592 13.8083 23.5215C14.2386 23.271 14.4979 22.8044 14.4979 22.3064C14.4979 21.8083 14.239 21.3422 13.8083 21.0913C13.3997 20.8536 13.125 20.4109 13.125 19.904V17.1586C13.125 15.0818 14.662 13.3643 16.6604 13.0812C16.9962 13.0336 17.2434 12.7421 17.2434 12.403V9.6084H23.4207V12.403C23.4207 12.7421 23.6678 13.0336 24.0037 13.0812C26.0021 13.3643 27.5391 15.0818 27.5391 17.1586V19.904C27.5391 20.4109 27.2644 20.8536 26.8557 21.0913Z" fill="#E1EFF4"/>
<path id="Vector_7" d="M27.5391 17.1578V19.9033C27.5391 20.4102 27.2644 20.8529 26.8557 21.0906C26.425 21.3414 26.1661 21.8076 26.1661 22.3057C26.1661 22.8037 26.425 23.2703 26.8557 23.5207C27.2644 23.7584 27.5391 24.2012 27.5391 24.708V44.0505C27.5391 44.8089 26.9246 45.4235 26.1661 45.4235H15.3007C15.1835 45.2213 15.1154 44.9873 15.1154 44.7372V25.3943C15.1154 24.8874 15.39 24.4447 15.7987 24.207C16.2294 23.9565 16.4883 23.4904 16.4883 22.9919C16.4883 22.4939 16.2294 22.0277 15.7987 21.7772C15.39 21.5392 15.1154 21.0964 15.1154 20.5896V17.8441C15.1154 15.7677 16.6523 14.0498 18.6511 13.7667C18.9866 13.7191 19.2338 13.4276 19.2338 13.0885V10.2939H23.4207V12.4022C23.4207 12.7413 23.6678 13.0328 24.0037 13.0804C26.0021 13.3635 27.5391 15.0811 27.5391 17.1578Z" fill="#FFF5F5"/>
<path id="Vector_8" d="M25.4385 18.2568C25.5604 18.2568 25.663 18.3542 25.663 18.4762V18.4788V20.8987C25.663 21.3455 25.3784 21.7355 24.9554 21.9453C24.5094 22.1661 24.2413 22.577 24.2413 23.0161C24.2413 23.4556 24.5094 23.8665 24.9554 24.0873C25.3784 24.2968 25.663 24.6871 25.663 25.1339V42.6794C25.663 43.3478 25.0265 43.8894 24.2413 43.8894H16.4227C15.6376 43.8894 15.0011 43.3478 15.0011 42.6794V25.1339C15.0011 24.6871 15.2856 24.2968 15.7086 24.0873C16.1547 23.8665 16.4227 23.4556 16.4227 23.0161C16.4227 22.577 16.1547 22.1661 15.7086 21.9453C15.2856 21.7355 15.0011 21.3455 15.0011 20.8987V18.4788C15.0011 18.4777 15.0011 18.4769 15.0011 18.4762C15.0011 18.3542 15.1036 18.2568 15.2256 18.2568H25.4385Z" fill="#16BADB"/>
<path id="Vector_9" d="M24.1073 8.48633V10.7297C24.1073 11.2472 23.6873 11.6672 23.1698 11.6672H17.4943C16.9764 11.6672 16.5568 11.2472 16.5568 10.7297V8.48633C16.5568 7.96851 16.9764 7.54883 17.4943 7.54883H23.1698C23.6873 7.54883 24.1073 7.96851 24.1073 8.48633Z" fill="#F45751"/>
<path id="Vector_10" d="M18.7189 7.55286V11.6632C18.2384 11.6226 17.8612 11.2205 17.8612 10.7297V8.48633C17.8612 7.99524 18.2384 7.59314 18.7189 7.55286ZM19.7487 11.6672H20.6924V7.54883H19.7487V11.6672ZM23.6953 7.70996V11.5061C23.944 11.3373 24.1073 11.0527 24.1073 10.7297V8.48633C24.1073 8.16333 23.944 7.87878 23.6953 7.70996ZM21.7218 11.6672H22.6659V7.54883H21.7218V11.6672Z" fill="#F56D59"/>
<path id="Vector_11" d="M42.75 39.029C38.3518 44.5266 31.5879 48.0488 24 48.0488C16.4121 48.0488 9.64783 44.5266 5.25 39.029V24.4806C5.25 23.9316 5.69531 23.4863 6.24426 23.4863C6.50793 23.4863 6.76099 23.5911 6.94739 23.7775L8.26611 25.0962C8.4126 25.2427 8.6499 25.2427 8.79639 25.0962L9.90893 23.9836C10.2275 23.665 10.6593 23.4863 11.1094 23.4863C11.5594 23.4863 11.9912 23.6654 12.3094 23.9836L13.4224 25.0962C13.5688 25.2427 13.8062 25.2427 13.9526 25.0962L15.0652 23.9836C15.3834 23.665 15.8152 23.4863 16.2656 23.4863C16.7157 23.4863 17.1475 23.6654 17.4657 23.9836L18.5782 25.0962C18.7247 25.2427 18.9624 25.2427 19.1089 25.0962L20.2214 23.9836C20.5397 23.665 20.9714 23.4863 21.4215 23.4863C21.8719 23.4863 22.3037 23.6654 22.6219 23.9836L23.7345 25.0962C23.881 25.2427 24.1186 25.2427 24.2648 25.0962L25.3777 23.9836C25.6959 23.665 26.1277 23.4863 26.5778 23.4863C27.0278 23.4863 27.46 23.6654 27.7782 23.9836L28.8907 25.0962C29.0372 25.2427 29.2745 25.2427 29.421 25.0962L30.5336 23.9836C30.8522 23.665 31.2839 23.4863 31.734 23.4863C32.1841 23.4863 32.6158 23.6654 32.9341 23.9836L34.047 25.0962C34.1935 25.2427 34.4308 25.2427 34.5773 25.0962L35.6898 23.9836C36.0081 23.665 36.4398 23.4863 36.8903 23.4863C37.3403 23.4863 37.7721 23.6654 38.0903 23.9836L39.2029 25.0962C39.3494 25.2427 39.587 25.2427 39.7335 25.0962L41.0519 23.7775C41.2383 23.5911 41.4913 23.4863 41.755 23.4863C42.3043 23.4863 42.7496 23.9316 42.7496 24.4806V39.029H42.75Z" fill="#FBC56D"/>
<path id="Vector_12" d="M12.8101 43.2654C16.4194 45.9698 20.8154 47.6815 25.5937 47.9946C25.0668 48.0294 24.5358 48.0488 24 48.0488C16.4121 48.0488 9.64783 44.5266 5.25 39.029V24.4806C5.25 23.9316 5.69531 23.4863 6.24426 23.4863C6.50793 23.4863 6.76099 23.5911 6.94739 23.7775L8.26611 25.0962C8.31518 25.1453 8.37488 25.1764 8.4375 25.1925V34.4426C8.4375 37.9051 10.0393 41.1893 12.8101 43.2654Z" fill="#EBAE56"/>
</g>
<defs>
<clipPath id="clip0_5526_17195">
<rect width="48" height="48" fill="white" transform="translate(0 0.0488281)"/>
</clipPath>
</defs>
</svg>
