<svg width="20" height="20" viewBox="0 0 20 20" fill="none" xmlns="http://www.w3.org/2000/svg">
<g id="Profile Icons">
<path id="location_on" d="M9.99998 17.7712C9.80553 17.7712 9.61109 17.7364 9.41665 17.667C9.2222 17.5975 9.04859 17.4934 8.89581 17.3545C7.99304 16.5212 7.19442 15.7087 6.49998 14.917C5.80554 14.1253 5.22567 13.358 4.7604 12.6149C4.29512 11.8719 3.94095 11.1566 3.6979 10.4691C3.45484 9.78158 3.33331 9.12533 3.33331 8.50033C3.33331 6.41699 4.00345 4.75727 5.34373 3.52116C6.68401 2.28505 8.23609 1.66699 9.99998 1.66699C11.7639 1.66699 13.316 2.28505 14.6562 3.52116C15.9965 4.75727 16.6666 6.41699 16.6666 8.50033C16.6666 9.12533 16.5451 9.78158 16.3021 10.4691C16.059 11.1566 15.7048 11.8719 15.2396 12.6149C14.7743 13.358 14.1944 14.1253 13.5 14.917C12.8055 15.7087 12.0069 16.5212 11.1041 17.3545C10.9514 17.4934 10.7778 17.5975 10.5833 17.667C10.3889 17.7364 10.1944 17.7712 9.99998 17.7712ZM9.99998 10.0003C10.4583 10.0003 10.8507 9.83713 11.1771 9.51074C11.5035 9.18435 11.6666 8.79199 11.6666 8.33366C11.6666 7.87533 11.5035 7.48296 11.1771 7.15658C10.8507 6.83019 10.4583 6.66699 9.99998 6.66699C9.54165 6.66699 9.14929 6.83019 8.8229 7.15658C8.49651 7.48296 8.33331 7.87533 8.33331 8.33366C8.33331 8.79199 8.49651 9.18435 8.8229 9.51074C9.14929 9.83713 9.54165 10.0003 9.99998 10.0003Z" fill="#667085"/>
</g>
</svg>
