<svg width="18" height="18" viewBox="0 0 18 18" fill="none" xmlns="http://www.w3.org/2000/svg">
<g id="shopping-bag-03">
<g id="Icon">
<path d="M11.3285 13.7849C12.3128 13.7849 12.805 13.7849 13.1683 13.5882C13.4875 13.4155 13.7399 13.1411 13.8856 12.8087C14.0514 12.4303 14.0105 11.9399 13.9288 10.9589L13.5482 6.39262C13.4779 5.5486 13.4427 5.12659 13.2558 4.80718C13.0912 4.52591 12.8462 4.3004 12.5522 4.15974C12.2184 4 11.7949 4 10.9479 4L7.05206 4C6.20511 4 5.78164 4 5.44781 4.15974C5.15385 4.3004 4.90876 4.52591 4.74417 4.80718C4.55727 5.12659 4.5221 5.5486 4.45176 6.39262L4.07124 10.9589C3.98949 11.9399 3.94862 12.4303 4.11444 12.8087C4.26012 13.1411 4.51254 13.4155 4.83173 13.5882C5.19501 13.7849 5.68719 13.7849 6.67154 13.7849H11.3285Z" fill="#1570EF"/>
<path d="M11.1744 6.71803C11.1744 7.29473 10.9453 7.8478 10.5376 8.25558C10.1298 8.66337 9.57669 8.89246 9 8.89246C8.42331 8.89246 7.87023 8.66337 7.46245 8.25558C7.05466 7.8478 6.82557 7.29473 6.82557 6.71803" fill="#1570EF"/>
<path d="M11.1744 6.71803C11.1744 7.29473 10.9453 7.8478 10.5376 8.25558C10.1298 8.66337 9.57669 8.89246 9 8.89246C8.42331 8.89246 7.87023 8.66337 7.46245 8.25558C7.05466 7.8478 6.82557 7.29473 6.82557 6.71803M4.45176 6.39262L4.07124 10.9589C3.98949 11.9399 3.94862 12.4303 4.11444 12.8087C4.26012 13.1411 4.51254 13.4155 4.83173 13.5882C5.19501 13.7849 5.68719 13.7849 6.67154 13.7849H11.3285C12.3128 13.7849 12.805 13.7849 13.1683 13.5882C13.4875 13.4155 13.7399 13.1411 13.8856 12.8087C14.0514 12.4303 14.0105 11.9399 13.9288 10.9589L13.5482 6.39262C13.4779 5.5486 13.4427 5.12659 13.2558 4.80718C13.0912 4.52591 12.8462 4.3004 12.5522 4.15974C12.2184 4 11.7949 4 10.9479 4L7.05206 4C6.20511 4 5.78164 4 5.44781 4.15974C5.15385 4.3004 4.90876 4.52591 4.74417 4.80718C4.55727 5.12659 4.5221 5.5486 4.45176 6.39262Z" stroke="#1570EF" stroke-width="2" stroke-linecap="round" stroke-linejoin="round"/>
</g>
<path id="Icon_2" d="M11.025 6.75C11.025 7.28706 10.8116 7.80213 10.4319 8.18189C10.0521 8.56165 9.53704 8.775 8.99998 8.775C8.46291 8.775 7.94785 8.56165 7.56808 8.18189C7.18832 7.80213 6.97498 7.28706 6.97498 6.75" stroke="white" stroke-linecap="round" stroke-linejoin="round"/>
</g>
</svg>
